<?xml version="1.0" encoding="UTF-8"?>
<svg id="Layer_2" data-name="Layer 2" xmlns="http://www.w3.org/2000/svg" viewBox="0 0 336.97 413.51">
  <defs>
    <style>
      .cls-1 {
        font-size: 19.85px;
      }

      .cls-1, .cls-2, .cls-3 {
        fill: #000;
        font-family: Impact, Impact;
      }

      .cls-2 {
        font-size: 20px;
      }

      .cls-3 {
        font-size: 20.5px;
      }

      .cls-4 {
        fill: #020303;
      }

      .cls-4, .cls-5, .cls-6 {
        stroke-width: 0px;
      }

      .cls-5 {
        fill: #8c5dde;
      }

      .cls-6 {
        fill: #c3f5f0;
      }
    </style>
  </defs>
  <g id="Layer_14" data-name="Layer 14">
    <g id="Jar">
      <path id="Glass" class="cls-6" d="M151.09,66.26c-3.87,1.44-120.3-6.77-124.28-7.85-1.07-.29-3.48,3.55-4.5,4.08-4.71,2.32-9.3,4.79-13.74,7.6-1.45.72-2.18,1.73-2.15,3.62.75,56.52,1.25,113.05,1.92,169.58.5,45.8.97,91.61,1.46,137.41.01,1.4,1.8,3.32,3.08,2.61,52.61,14.42,107.62,24.17,162.46,24.28,50.32-1.97,100.32-10.81,148.81-24.07,0-.02,0-.03,0-.05,1.43-.38,3.04-1.78,3.05-2.94.32-30.36.65-60.72.98-91.07.82-71.94,1.51-143.88,2.39-215.82.03-2.06-.98-2.92-2.43-3.74-4.16-2.6-8.52-4.92-12.9-7.17-1.12-.62-2.02-7.19-3.2-7.04-38.54,4.79-160.94,10.56-160.94,10.56Z"/>
      <path id="Lid" class="cls-5" d="M18.6,57.82c6.12,4.89,17.91,6.49,25.55,7.27,74.11,7.58,192.31,16.51,269.54-4.37.19-.05,5.3-3.02,5.06-3.18,1.26-7.63.44-17.6-.28-25.5-.15-.9-.18-2.99-1.02-3.26-6.32-2.01-14.92-5.94-21.31-7.73C253.83,9.32,210.81,3.98,166.89,2.71c-46.31,1.76-93.35,8.51-137.62,22.61-3.9,2.14-12.43,2.56-12.17,8.08.13,4.36-2.23,21.66,1.49,24.42"/>
      <g id="TYPE">
        <text class="cls-3" transform="translate(57.35 39.49) rotate(-10.83) scale(1.41 .98) skewX(-7.59)"><tspan x="0" y="0">D</tspan></text>
        <text class="cls-3" transform="translate(73.18 36.48) rotate(-10.18) scale(1.41 .98) skewX(-7.15)"><tspan x="0" y="0">E</tspan></text>
        <text class="cls-3" transform="translate(85.09 34.34) rotate(-9.61) scale(1.41 .99) skewX(-6.76)"><tspan x="0" y="0">A</tspan></text>
        <text class="cls-3" transform="translate(99.66 31.83) rotate(-8.38) scale(1.41 .99) skewX(-5.91)"><tspan x="0" y="0">D</tspan></text>
        <text class="cls-2" transform="translate(120.25 28.02) rotate(-4.62) scale(1.41 1) skewX(-3.27)"><tspan x="0" y="0">A</tspan></text>
        <text class="cls-2" transform="translate(134.62 26.87) rotate(-3.87) scale(1.41 1) skewX(-2.74)"><tspan x="0" y="0">N</tspan></text>
        <text class="cls-2" transform="translate(149.95 25.83) rotate(-3.32) scale(1.41 1) skewX(-2.35)"><tspan x="0" y="0">D</tspan></text>
        <text class="cls-1" transform="translate(170.13 25.31) rotate(1.75) scale(1.39 1) skewX(1.26)"><tspan x="0" y="0">T</tspan></text>
        <text class="cls-1" transform="translate(181.82 25.65) rotate(3.71) scale(1.39 1) skewX(2.67)"><tspan x="0" y="0">A</tspan></text>
        <text class="cls-1" transform="translate(194.36 26.46) rotate(5.21) scale(1.39 1) skewX(3.74)"><tspan x="0" y="0">T</tspan></text>
        <text class="cls-1" transform="translate(207.12 27.63) rotate(6.56) scale(1.39 .99) skewX(4.7)"><tspan x="0" y="0">T</tspan></text>
        <text class="cls-1" transform="translate(219.87 29.09) rotate(7.85) scale(1.39 .99) skewX(5.62)"><tspan x="0" y="0">O</tspan></text>
        <text class="cls-1" transform="translate(234.88 31.16) rotate(9.16) scale(1.39 .99) skewX(6.54)"><tspan x="0" y="0">O</tspan></text>
        <text class="cls-1" transform="translate(249.84 33.59) rotate(10.34) scale(1.39 .98) skewX(7.37)"><tspan x="0" y="0">E</tspan></text>
        <text class="cls-1" transform="translate(261.2 35.63) rotate(11.71) scale(1.39 .98) skewX(8.32)"><tspan x="0" y="0">D</tspan></text>
      </g>
      <path id="Jar_Outline" data-name="Jar Outline" class="cls-4" d="M333.42,66.09c-3.44-2.16-6.9-4.28-10.51-6.16-.5-.26-.61-.56-.34-1.06.79-1.47.96-3.1,1.13-4.73.5-4.86.03-9.72-.13-14.57-.13-4.08-.67-8.14-1.75-12.1-.31-1.15-1.01-1.85-2.05-2.38-1.07-.54-2.25-.65-3.35-1.04-4.17-1.49-8.31-3.06-12.6-4.23-3.75-1.02-7.37-2.43-11.18-3.3-5.47-1.23-10.82-2.95-16.37-3.91-5.98-1.03-11.81-2.74-17.82-3.72-7.46-1.22-14.81-3.14-22.36-3.88-3.52-.34-7.01-1.02-10.52-1.4-8.53-.92-17.06-1.79-25.63-2.34C189.45.6,178.98-.03,168.48,0c-7.41.02-14.81.1-22.21.62-4.85.34-9.69.65-14.54.95-5.21.31-10.4.92-15.59,1.51-6.35.72-12.7,1.53-19.04,2.35-6.93.9-13.71,2.6-20.6,3.73-6.56,1.08-12.97,2.98-19.53,4.15-4.81.86-9.48,2.38-14.23,3.53-5,1.22-9.88,2.95-14.79,4.54-2.71.88-5.31,2.15-8.06,2.84-3.73.94-4.47,1.57-5.25,5.37-1.53,7.49-1.48,15.08-1.5,22.66,0,2.25.2,4.55,1.27,6.63.38.75-.12.89-.6,1.17-2.8,1.66-5.81,2.95-8.41,4.95-.4.3-.78.65-1.23.85C1.04,67.25-.06,69.65,0,73.04c.26,13.13.36,26.26.5,39.4.46,41.72.91,83.43,1.37,125.15.54,48.8,1.08,97.61,1.63,146.41.02,1.93.93,3.22,2.83,3.87,2.18.75,4.41,1.3,6.66,1.83,4.93,1.16,9.72,2.84,14.71,3.83,5.37,1.07,10.58,2.79,16,3.75,6.1,1.09,12.09,2.73,18.21,3.84,8.25,1.49,16.45,3.23,24.74,4.48,7.22,1.08,14.37,2.53,21.65,3.23,5.06.49,10.08,1.33,15.13,1.91,6.72.77,13.43,1.48,20.21,1.77,6.8.28,13.6.82,20.41.96,7.64.16,15.27-.04,22.89-.57,5.84-.41,11.7-.52,17.53-1.09,9.3-.91,18.54-2.33,27.84-3.32,8.38-.9,16.63-2.8,24.99-3.93,6.73-.91,13.32-2.66,20.04-3.76,6.56-1.07,12.98-2.96,19.53-4.18,4.85-.9,9.57-2.38,14.39-3.46,6.44-1.44,12.78-3.38,19.13-5.19,2.23-.64,3.05-1.94,3.08-4.23.33-28.86.67-57.71.99-86.57.41-38.26.79-76.53,1.21-114.79.4-36.67.83-73.34,1.3-110.02.04-2.89-1.22-4.79-3.55-6.26ZM19.88,33.4c.08-.77.23-1.52.31-2.29.08-.73.64-.9,1.19-1.14,3.5-1.5,7.23-2.34,10.81-3.63,6.05-2.19,12.26-3.96,18.51-5.43,6-1.41,11.96-3.05,18.03-4.09,6.35-1.09,12.56-2.88,18.94-3.78,8.4-1.19,16.7-3.06,25.16-3.71,12.31-.96,24.57-2.4,36.9-3.1,6.08-.34,12.15-.83,18.23-.88,6.13-.05,12.26.39,18.37.81,5.39.38,10.78.78,16.16,1.25,5.38.47,10.74,1.17,16.13,1.49,4.58.28,9.13.78,13.66,1.48,4.66.73,9.29,1.66,13.97,2.26,6.67.86,13.14,2.72,19.75,3.85,5.83.99,11.47,2.7,17.26,3.79,4.61.87,9,2.47,13.52,3.6,4.28,1.06,8.33,2.78,12.55,4.01,2.09.61,4.11,1.39,6.17,2.05.83.27,1.19.74,1.33,1.64.7,4.38.61,8.78.56,13.19,0,2.73,0,5.45,0,8.18,0,.23-.01.45-.02.68-.17,3.29-.36,3.35-3.31,2.08-3.78-1.64-7.55-3.32-11.45-4.64-3.3-1.11-6.51-2.54-9.86-3.46-4.76-1.31-9.38-3.14-14.19-4.25-4.68-1.08-9.23-2.69-13.94-3.61-6.01-1.17-11.9-2.94-17.94-3.86-7.4-1.12-14.69-2.93-22.13-3.72-6.59-.7-13.13-1.72-19.72-2.39-6.01-.61-12.02-1.33-18.05-1.49-8.4-.22-16.8-.73-25.21-.28-4.58.24-9.17.03-13.76.39-7.92.62-15.84,1.28-23.71,2.38-5.75.81-11.55,1.18-17.27,2.24-4.68.87-9.35,1.89-14.06,2.54-5.86.81-11.51,2.54-17.3,3.6-5.06.92-9.9,2.62-14.9,3.71-4.4.96-8.57,2.64-12.9,3.76-3.92,1.02-7.6,2.7-11.46,3.85-3.37,1-6.46,2.62-9.73,3.79-1.84.66-3.62,1.41-5.36,2.27-.78.39-.97.02-1.11-.58-.2-.88-.44-1.76-.44-2.68.01-6.63-.34-13.27.31-19.89ZM151.41,345.57c-34.6,1.64-57.45,3.98-92.52,14.53-5.55,1.67-10.86,4.04-16.2,6.29-2.92,1.23-5.77,2.6-8.69,3.82-5.39,2.25-10.57,4.92-15.76,7.57-2.38,1.22-4.69,2.54-7.01,3.84-1.27.71-1.43.63-1.44-.77-.48-45.8-.96-91.61-1.46-137.41-.45-41.99-.93-83.97-1.39-125.96-.16-14.54-.26-29.08-.52-43.62-.03-1.88.7-2.9,2.15-3.62.86-.43,1.64-.94,2.43-1.46,3.59-2.39,7.53-4.13,11.32-6.14,1.01-.54,2.12-.32,3.18-.03,3.98,1.08,7.96,2.18,11.96,3.22,6.14,1.95,61.97,6.78,78.1,7.68s117.65,3.21,148.33-.98l3.76-.85c3.15-.59,6.11-1.28,9.1-1.58,4.49-.45,8.85-1.52,13.25-2.4,7.34-1.46,14.68-2.91,21.82-5.19,1.13-.36,2.3-.26,3.42.36,4.03,2.24,8.31,4.03,12.05,6.77.25.18.58.24.85.39,1.45.82,2.46,1.68,2.43,3.74-.5,38.95-.89,77.89-1.31,116.84-.36,32.99-.73,65.99-1.08,98.98-.33,30.36-.65,60.72-.98,91.07-.02,1.62-.16,1.74-1.54.86-4.06-2.58-8.41-4.64-12.69-6.79-5.53-2.78-11.18-5.35-16.91-7.7-3.18-1.3-6.28-2.84-9.55-3.87-3.55-1.11-6.88-2.83-10.45-3.82-3.98-1.11-7.75-2.86-11.74-3.83-4.58-1.12-8.98-2.9-13.59-3.84-33.95-8.15-76.94-7.54-99.31-6.13ZM252.52,354.69c4.66,1.01,9.09,2.79,13.68,4.01,3.74.99,7.25,2.6,10.93,3.67,3.63,1.06,6.99,2.77,10.56,3.93,3.03.98,5.84,2.45,8.77,3.62,5.8,2.31,11.36,5.13,16.99,7.81,3.63,1.73,6.94,4.03,10.72,5.46-.02.11-.04.22-.06.33-2.34.69-4.63,1.59-7.02,2.01-3.68.64-7.18,1.88-10.8,2.72-7.11,1.64-14.16,3.54-21.32,4.89-6.29,1.18-12.47,2.85-18.8,3.78-7.58,1.11-15.04,2.98-22.64,3.91-9.28,1.14-18.46,3-27.77,3.78-7.47.62-14.9,1.56-22.37,2.06-6.03.4-12.06.82-18.1.93-10.09.17-20.16-.03-30.22-.83-6.79-.54-13.55-1.4-20.34-1.91-9.61-.73-19.06-2.58-28.6-3.75-7.71-.95-15.26-2.74-22.92-3.87-6.3-.92-12.42-2.62-18.68-3.66-5.91-.98-11.64-2.76-17.51-3.88-5.04-.97-9.9-2.58-14.89-3.7-2.88-.64-5.71-1.4-8.53-2.22-.26-.08-.55-.08-.76-.45,2.48-1.34,4.95-2.71,7.46-4,3.22-1.66,6.4-3.41,9.73-4.81,2.67-1.12,5.18-2.6,7.9-3.6,3.32-1.21,6.42-2.97,9.76-4.08,3.27-1.09,6.34-2.71,9.63-3.68,45.67-16.82,140.4-20.3,195.19-8.44ZM46.64,65.09c-4.03-.66-7.94-1.93-11.96-2.66-2.55-.47-5.02-1.1-7.54-1.98,5.31-1.9,10.32-4.47,15.76-5.96,2.71-.74,5.29-1.9,7.99-2.71,5.42-1.62,10.83-3.37,16.34-4.62,5.35-1.21,10.6-2.86,16.01-3.78,6.97-1.18,13.82-3.06,20.83-3.96,8.68-1.11,17.29-2.87,26.02-3.52,6.11-.46,12.21-1.08,18.32-1.47,9.71-.63,19.43-.86,29.15-.54,8.35.28,16.67,1.1,25,1.72,6.62.5,13.17,1.4,19.73,2.32,9.61,1.35,19.16,3.02,28.68,4.95,5.6,1.14,11.1,2.71,16.69,3.85,4.73.96,9.23,2.66,13.9,3.77,4.21,1,8.17,2.71,12.3,3.88,3.42.97,6.62,2.45,9.94,3.63,2.05.73,4.08,1.48,6.38,2.58-13.67,3.46-41.34,8.43-41.16,8.26,0,0,0,0,0,0,0,0-4.3.5-7.66,1.19-38.59,3.6-107.76,2.15-120.51,1.46-10.12.48-80.39-4.17-94.2-6.42Z"/>
    </g>
  </g>
</svg>