<?xml version="1.0" encoding="UTF-8"?>
<svg id="Layer_2" data-name="Layer 2" xmlns="http://www.w3.org/2000/svg" viewBox="0 0 277.69 335.95">
  <defs>
    <style>
      .cls-1 {
        fill: #40da12;
      }

      .cls-1, .cls-2, .cls-3, .cls-4, .cls-5, .cls-6, .cls-7, .cls-8, .cls-9, .cls-10, .cls-11 {
        stroke-width: 0px;
      }

      .cls-2 {
        fill: #000;
        opacity: .92;
      }

      .cls-3 {
        fill: #e4d74e;
      }

      .cls-4 {
        fill: #51e4d6;
      }

      .cls-5 {
        fill: #fbfbfb;
      }

      .cls-6 {
        fill: #a995e0;
      }

      .cls-7 {
        fill: #020303;
      }

      .cls-8 {
        fill: #060705;
      }

      .cls-9 {
        fill: #50e1d3;
      }

      .cls-10 {
        fill: #fff;
      }

      .cls-11 {
        fill: #020703;
      }
    </style>
  </defs>
  <g id="Layer_14" data-name="Layer 14">
    <g id="Pig">
      <path id="Face" class="cls-1" d="M270.38,210.67c-2.04-11.83-6.68-22.69-12.35-33.15-4.73-8.71-10.38-16.86-16.04-24.98-2.56-3.68-4.94-7.53-8.36-10.55l-3.47-7.28c-.02-.09-.1-.19-.14-.26-5.41-10.81-8.99-22.27-12.17-33.88-1.03-3.76-1.89-7.57-3.35-11.21-.68-1.7-2-3.1-2.52-4.81-1.06-3.47-3.1-6.36-5.09-9.27-6.51-9.53-13.46-18.73-20.84-27.62-3.72-4.48-6.86-8.58-11.52-12.13-.43-.33-.84-1.08-.91-1.8.9-3.91,3.36-8.57,6.19-11.48,4.59-4.71,10.09-6.88,16.25-8.68,7.69-2.26,15.27-4.01,23.23-4.79,1.71-.17,3.48-.02,5.49-.65-5.37-.45-10.38-.86-15.4-1.28-6.76-.56-13.5-.7-20.2.65-11.05,2.22-18.47,9.93-20,20.78-.07.49-2.03,2.52-2.96,2.32-4.55-.97-9.25-1.19-13.91-1.55-9.37-.71-18.68.27-27.94,1.43.1-.44-2.12-2.97-2.3-3.15-6.5-6.66-13.86-12.17-22.26-16.17-7.35-3.5-15.08-4.37-23.11-2.92-7.04,1.28-13.78,3.57-20.58,5.66-9.28,2.85-18.43,6.09-27.72,8.92-5.34,1.63-10.68,3.27-15.63,5.91-1.81.96-3.55,2.04-4.94,3.58-.44.49-.91.98-.94,1.85.83-.19,1.57-.35,2.31-.52,13.72-3.11,27.38-6.43,40.88-10.39,8.2-2.4,16.14-5.51,24.2-8.32,9.29-3.24,18.38-2.99,27.2,1.47,4.62,2.34,8.27,5.62,9.21,11.08.16.94.29,1.88.38,2.83.05.55.56,3.22.02,3.36-2.49.62-7.9,3.27-12.93,6.29-18.93,11.34-30.22,26.6-37.84,46.09-1.99,5.09-2.7,10.43-3.76,15.71-2.04,10.2-4.64,20.24-8.07,30.07-.92,2.65-2.08,5.25-3.05,7.89,0,0-.75,2.61-1.26,4.37-2.57,3.35-3.33,6.38-5.15,10.22-8.15,17.21-15.22,34.84-19.99,53.32-3.76,14.57-6.29,29.29-4.51,44.44.74,6.33,1.98,12.55,4.17,18.54,5.78,15.77,15.45,28.78,28.64,39.03,17.07,13.26,36.71,19.46,58.22,19.91,4.73.1,9.44-.27,14.14-.77,8.55-.91,16.94-2.62,25.14-5.2,13.32-4.19,26.12-9.67,38.73-15.61,12.7-5.98,25.21-12.33,37.01-19.99,9.47-6.15,18.12-13.38,26.63-20.77,7.73-6.71,14.18-14.45,18.59-23.77,4.94-10.44,6.57-21.34,4.6-32.76Z"/>
      <g id="Ears">
        <polygon id="L_Ear" data-name="L Ear" class="cls-9" points="14.58 33.8 10.33 36.5 8.86 39.24 9.66 41.97 12.45 44.72 21.74 59.08 25.59 65.4 29.87 74.15 39.76 81.98 49.26 88.4 56.39 89.85 58.55 87.71 65.42 72.66 70.12 64.17 75.66 57.71 82.57 50.15 87.46 45.25 94.19 40.76 100.38 37.52 108.92 32.43 109.99 29.74 108.26 24.38 105.1 20.19 101.06 17.57 96.09 15.69 91.39 14.51 86.06 13.82 79.43 14.66 75.07 16.23 61.91 20.67 53.87 23.27 45.47 25.82 36.66 28.38 31.05 29.53 20.18 32.35 14.58 33.8"/>
        <path id="R_Ear" data-name="R Ear" class="cls-4" d="M231.35,10.6c-.35,1.29-.63,2.52-.22,3.79.49,1.5,1.45,2.63,2.82,3.36.85.45.76.77.12,1.34-.78.69-1.41,1.54-1.95,2.44-1.87,3.09-1.28,6.23,1.59,8.44,1.57,1.21,3.4,1.86,5.44,2.5-1.46,1.61-2.85,3.13-4.23,4.67-8.06,8.96-13.76,19.2-16.79,30.9-.82,3.16-1.78,6.29-3.66,9.03-.23.34-.44.7-.73.98-1.2,1.17-1.48,1.12-2.36-.31-6.36-10.3-13.77-19.84-21.34-29.26-4.04-5.03-8-10.13-12.99-14.29-.48-.4-.55-.88-.53-1.45.07-2.17.97-4.04,2.12-5.81,3.07-4.74,7.6-7.58,12.7-9.63,6.87-2.76,14.1-4.08,21.39-5.12,5.35-.77,10.72-1.3,16.12-1.56.8-.04,1.61,0,2.51,0Z"/>
      </g>
      <path id="Face_Outline" data-name="Face Outline" class="cls-2" d="M265.77,243.46c-4.41,9.3-10.85,17.04-18.57,23.74-8.51,7.39-17.16,14.62-26.63,20.77-11.79,7.66-24.31,14-37.01,19.99-12.61,5.94-25.41,11.42-38.73,15.61-8.2,2.58-16.59,4.28-25.14,5.2-4.7.5-9.41.87-14.14.77-21.52-.46-41.15-6.65-58.22-19.91-13.19-10.25-22.87-23.26-28.64-39.03-2.2-5.99-3.43-12.21-4.17-18.54-1.78-15.15.75-29.86,4.51-44.44.43-1.67.9-3.33,1.37-4.99l.85-2.97c4.63-15.61,10.8-30.64,17.77-45.37,1.82-3.84,4.56-7.1,7.13-10.45,4.67-6.08,9.05-12.41,14.37-17.98,1.06-1.12,2.2-2.17,3.3-3.25.19-.19.41-.36.6-.56.61-.65,1.01-1.4.28-2.15-.69-.71-1.44-.31-2.05.24-2.47,2.22-4.8,4.58-6.95,7.11-3.04,3.56-5.79,7.35-8.66,11.04-.41.53-.73,1.15-1.31,1.54-.07.12-.08.38-.27.27-.14-.09-.04-.29.13-.38.97-2.63,1.98-5.25,2.9-7.9,3.43-9.82,6.03-19.87,8.07-30.07,1.06-5.28,1.77-10.62,3.76-15.71,7.62-19.49,19.78-35.23,37.84-46.09,8.09-4.86,16.82-8.3,26.22-9.48,9.26-1.16,18.57-2.14,27.94-1.43,4.66.35,9.34.77,13.89,1.74,2.89.61,5.41,2.51,7.81,4.33,4.66,3.56,8.34,8.06,12.05,12.55,7.37,8.89,14.32,18.09,20.84,27.62,1.99,2.91,4.03,5.8,5.09,9.27.52,1.71,1.84,3.12,2.52,4.81,1.46,3.63,2.32,7.45,3.35,11.21,3.18,11.61,6.76,23.07,12.17,33.88.04.08.04.17.07.26.03.1.06.21.08.31-.09-.04-.18-.09-.28-.13-2.91-2.45-5.79-4.95-8.75-7.35-3.42-2.78-6.91-5.48-11.06-7.13-.34-.13-.68-.25-1.02-.38-.82-.31-1.59-.26-1.94.64-.35.9.2,1.49,1.01,1.79,5.91,2.24,10.53,6.38,15.23,10.37,3.49,2.97,6.84,6.12,10.27,9.16,3.41,3.02,5.79,6.86,8.36,10.55,5.66,8.13,11.3,16.27,16.04,24.98,5.68,10.45,10.32,21.32,12.35,33.15,1.65,9.58.76,18.8-2.48,27.69l-1.82,4.35-.24.61M272.38,244.64l2.04-5.33c1.17-3.5,2.05-7.14,2.64-10.93,1.43-9.28.3-18.39-2.26-27.34-3.85-13.46-10.07-25.82-17.69-37.52-5.01-7.69-10.16-15.28-15.54-22.7-5.4-7.46-9.1-15.74-12.14-24.38-2.97-8.44-5.17-17.09-7.64-25.67-.72-2.49-1.65-4.9-2.99-7.13-.27-.45-.59-.85-.11-1.45,2.98-3.73,4.53-8.14,5.71-12.68,3-11.62,8.96-21.55,17.19-30.18,1.29-1.35,2.59-2.68,3.86-4.05.49-.53.96-1.09,1.35-1.7,1.52-2.37.71-5.05-1.86-6.25-1.17-.55-2.44-.7-3.66-1.01-.99-.25-2.91-.93-3.09-1.2s.96-1.66,2.08-2.82c1.56-1.83,3.5-3.29,2.77-5.87-.69-2.46-2.98-2.98-5.02-3.82.46-.93,1.27-1.49,1.88-2.2,2.4-2.78,1.64-5.88-1.83-7.11-2.86-1.01-5.9-.95-8.88-1.22-7.05-.64-14.11-1.3-21.18-1.77-7.81-.52-15.64-.64-23.24,1.72-10.27,3.19-17.3,9.7-20.27,20.21-.35,1.24-.7,1.69-2.16,1.46-10.9-1.71-21.81-1.58-32.67.38-1.69.3-2.78-.02-3.97-1.35-5.21-5.84-11.28-10.66-17.98-14.69C96.01.97,83.52-.55,70.37,3.01c-9.5,2.57-18.88,5.56-28.22,8.67-7.18,2.39-14.43,4.62-21.63,6.95l-5.32,1.86c-1.14.52-2.15.99-3.17,1.45-2.65,1.21-5.2,2.61-7.41,4.53-5.29,4.59-6.06,10.45-2.17,16.29,1.74,2.61,3.94,4.79,6.59,6.43,2.58,1.6,4.27,3.8,5.57,6.5,2.29,4.73,4.57,9.49,7.56,13.84,5.48,7.97,12.46,14.39,20.44,19.78,2.64,1.78,5.29,3.53,8.26,4.72,1.03.41,1.01,1.13.83,1.98-1.16,5.55-2.73,11-4.07,16.5-3.98,16.35-10.93,31.53-17.91,46.73-5.87,12.77-10.93,25.83-14.86,39.29l-.88,3.18c-.93,3.34-1.8,6.69-2.58,10.07-2.29,9.97-3.96,20.05-3.91,30.32.13,25.74,9.65,47.52,27.88,65.58.96.95,2.48,2.81,2.71,3.01.59.48,2.22,1.63,3.23,2.37,14.26,11.73,30.7,18.59,48.8,21.61,10.28,1.72,20.61,1.56,30.96.43,14.74-1.6,28.72-5.9,42.41-11.39,14.28-5.73,28.2-12.22,41.8-19.42l4.54-2.39c3.21-1.87,6.46-3.65,9.61-5.61,14.29-8.89,27.49-19.22,39.21-31.29,5.9-6.07,10.52-12.87,13.78-20.36h0M231.35,10.6c-.35,1.29-.63,2.52-.22,3.79.49,1.5,1.45,2.63,2.82,3.36.85.45.76.77.12,1.34-.78.69-1.41,1.54-1.95,2.44-1.87,3.09-1.28,6.23,1.59,8.44,1.57,1.21,3.4,1.86,5.44,2.5-1.46,1.61-2.85,3.13-4.23,4.67-8.06,8.96-13.76,19.2-16.79,30.9-.82,3.16-1.78,6.29-3.66,9.03-.23.34-.44.7-.73.98-1.2,1.17-1.48,1.12-2.36-.31-6.36-10.3-13.77-19.84-21.34-29.26-4.04-5.03-8-10.13-12.99-14.29-.48-.4-.55-.88-.53-1.45.07-2.17.97-4.04,2.12-5.81,3.07-4.74,7.6-7.58,12.7-9.63,6.87-2.76,14.1-4.08,21.39-5.12,5.35-.77,10.72-1.3,16.12-1.56.8-.04,1.61,0,2.51,0ZM169.18,28.28c1.53-10.85,8.95-18.56,20-20.78,6.7-1.35,13.44-1.21,20.2-.65,5.02.42,10.03.83,15.4,1.28-2.01.63-3.78.48-5.49.65-7.96.78-15.85,1.93-23.53,4.18-6.16,1.81-11.95,4.32-16.54,9.03-2.83,2.91-4.43,5.78-5.33,9.69-1.43-.81-2.84-1.62-4.26-2.41-.41-.23-.52-.51-.46-1ZM63.31,73.12c-2.38,4.5-4.48,9.12-6.11,13.94-.16.47-.36.75-.82.25-1.32-1.43-2.85-2.67-4-4.27-.65-.91-.97-1.94-1.02-3.08.13-2.05.96-3.82,2.31-5.37,1.08-1.25,2.38-2.23,3.85-2.98,2.41-1.24,3.67-1.1,5.69.6.39.33.3.56.11.91ZM81.31,46.26c-2.62-.34-4.98-.61-7.32-.97-3.16-.48-5.02-2.59-5.83-6.49-.6-2.91.8-5.75,3.39-7.61,2.41-1.73,5.19-1.73,7.89-2.1,1.18-.16,2.37-.61,3.59-.24-2.49,2.17-4,4.88-4.36,8.18-.36,3.3.81,6.23,2.64,9.23ZM67.58,44.26c-1.96.01-3.69-.44-5.45-.63-1.62-.17-3.23-.48-4.85-.69-1.99-.25-3.9-2.11-4.53-4.49-.52-1.93.12-3.69,1.9-5,1.29-.95,2.7-1.57,4.36-1.73,2.93-.28,5.84-.75,9.11-1.18-3.69,4.57-3.29,9.02-.54,13.71ZM57.59,65.98c-2.52-1.47-5.13-2.48-7.07-4.23-3.47-3.13-4.22-8.27-1.24-12.21,1.44-1.9,3.37-3.14,5.59-3.96,1.01-.37,1.98-.02,2.95.1,2.27.3,4.54.62,7.08.97-6.83,4.84-9.05,11.21-7.32,19.32ZM45.51,59.03c-3.11-1.79-5.9-3.29-8.57-4.98-1.29-.82-1.59-2.37-1.8-3.83-.39-2.69,1.28-5.72,3.75-6.82,1.04-.47,2.05-.03,3.07.1,2.81.37,5.62.76,8.72,1.18-4.95,3.64-6.94,8.18-5.17,14.35ZM32.61,51.61c-2.43-1.4-4.68-2.55-6.77-3.95-1.41-.95-1.44-4.26-.24-5.48.45-.46,1-.85,1.68-.76,2.63.35,5.26.74,8.16,1.15-2.46,2.55-3.27,5.48-2.82,9.04ZM36.35,40.03c-3.23-.44-6.23-.84-9.23-1.25-.67-.09-.91-.56-.91-1.15,0-.84.36-1.59,1.22-1.73,2.59-.42,5.19-.72,7.79-1.08.53-.07.65.18.54.63-.37,1.52-.03,2.96.58,4.58ZM51.64,42.16c-3.84-.52-7.38-.96-10.91-1.5-1.33-.2-2.54-2.31-2.47-4,.06-1.52.71-2.23,2.47-2.49,3.49-.5,6.99-.94,10.78-1.44-2.21,3.23-1.9,6.25.13,9.43ZM15.93,34.72c3.25-.76,6.45-1.51,9.65-2.25,16.83-3.87,33.28-8.98,49.47-15,8.51-3.16,16.91-2.84,25.1,1.19,2.08,1.02,3.95,2.33,5.66,4.32-30.13,3.93-59.99,7.83-89.89,11.74ZM17.45,37.2c1.69-.23,3.62-.47,5.54-.77.9-.14.75.41.79.96.04.74-.2.94-.93.81-1.83-.31-3.67-.54-5.51-.81-.08-.01-.15-.02-.23-.03.04-.02.08-.04.34-.17ZM24.19,50.67c.38-.24.73-.46,1.24-.16,2.25,1.33,4.53,2.62,6.92,4-1.98,1.19-2.95,2.92-3.45,5.19-1.85-1.88-3.6-3.58-5.25-5.37-1.02-1.1-.7-2.85.54-3.66ZM31.8,59.12c.5-1.49,1.54-2.43,3.12-2.71.32-.06.63-.06.92.12.23.14.48.26.72.39,2.58,1.49,5.17,2.98,7.92,4.57-3.8,2.7-4.63,3.87-5.7,8.05-1.02-1.01-1.96-1.94-2.9-2.88-1.12-1.12-2.21-2.28-3.36-3.38-1.28-1.22-1.21-2.67-.71-4.15ZM41.7,68.68c.39-1.55,1.3-2.78,2.51-3.79,2.19-1.81,2.98-1.87,5.43-.46,2.46,1.42,4.93,2.83,7.56,4.35-4.5,2.31-7.74,5.44-8.45,10.54-2.08-2-4.15-3.9-6.1-5.92-1.26-1.31-1.39-3-.96-4.72ZM72.07,59.63c-2.4,3.09-4.65,6.28-6.61,9.66-.42.73-.7.7-1.45.4-3.25-1.32-3.97-4.16-4.39-7.13-.87-6.11,3.09-12.51,8.9-14.55.86-.3,1.75-.56,2.67-.44,3.41.43,6.82.9,10.51,1.4-3.56,3.55-6.76,6.95-9.63,10.65ZM95.23,36.63c.22,1.51-.39,2.37-1.69,3.14-2.82,1.66-5.42,3.65-7.89,5.79-.75.65-1.12.54-1.69-.2-4.33-5.62-3.38-11.9,2.47-15.91,1.42-.98,2.87-1.81,4.69-1.94,2.43-.18,4.85-.59,7.55-.94-1.63,2.77-2.81,5.4-3.27,8.31-.09.58-.25,1.19-.17,1.75ZM105.4,33.34c-2.55,1.07-4.96,2.4-7.71,3.78.46-4.13,1.84-7.59,4.3-10.63.24-.3.56-.43.94-.47.67-.07,1.34-.18,2.02-.26q2.66-.31,3.19,2.41c.73,3.7.74,3.72-2.74,5.18ZM6.88,34.16c.03-.87.5-1.36.94-1.85,1.39-1.54,3.13-2.62,4.94-3.58,4.96-2.64,10.3-4.28,15.63-5.91,9.29-2.83,18.44-6.07,27.72-8.92,6.8-2.09,13.55-4.38,20.58-5.66,8.03-1.46,15.76-.58,23.11,2.92,8.4,4,15.77,9.51,22.26,16.17.18.18.46.32.36.76-3.56.67-7.11,1.55-10.58,2.75-.53.18-.73.02-.78-.53-.09-.95-.21-1.89-.38-2.83-.94-5.46-4.59-8.75-9.21-11.08-8.82-4.46-17.91-4.71-27.2-1.47-8.05,2.81-16,5.92-24.2,8.32-13.5,3.96-27.17,7.28-40.88,10.39-.74.17-1.48.33-2.31.52ZM21.68,49.37c-.46.46-.75,1.1-1.19,1.77-2.47-2.29-4.29-5.05-7.1-6.91.56-.35.89-.1,1.22.09,2.27,1.3,4.54,2.62,6.82,3.9.57.32.86.53.25,1.15ZM22.14,45.58c-3.7-2.12-7.24-4.14-10.78-6.17,0-.07.02-.14.02-.2,3.63.52,7.25,1.03,10.88,1.55.44.06,1.01-.03.58.73-.67,1.19-.77,2.49-.71,4.1ZM51.42,87.19c-12.12-7.01-22.15-16.08-28.33-28.91-.12-.24-.23-.48-.2-.89.36.33.73.65,1.08.99,9.51,9.57,19.01,19.14,28.52,28.71.13.13.23.28.35.41.07.12.14.23.22.35-.17.06-.32.05-.39-.15-.42-.17-.86-.29-1.24-.51Z"/>
      <g id="Ancher">
        <path id="Ancher-2" data-name="Ancher" class="cls-11" d="M69.04,152.11c.38-3.45.73-6.69,1.08-9.93.12-1.13.18-2.26.36-3.38.14-.86-.23-1.14-1.01-1.19-1.04-.07-2.08-.19-3.12-.29-.91-.09-1.67-.47-1.56-1.49.11-1.04.97-1.21,1.85-1.12,1.04.1,2.07.26,3.11.34.37.03.9.26,1.1-.2.23-.54-.38-.62-.68-.84-1.86-1.39-2.57-3.53-1.85-5.67.61-1.81,2.64-3.31,4.57-3.34,2.22-.04,4.44,1.69,4.88,3.81.5,2.45-.69,4.79-2.89,5.71-.4.17-.91.13-1.22.7,1.31.65,2.76.33,4.08.68.17.05.36.02.54.03.94.06,1.82.31,1.72,1.46-.11,1.26-1.09,1.25-2.05,1.15-1.08-.12-2.17-.21-3.24-.37-1.02-.15-1.49.03-1.59,1.26-.32,3.84-.84,7.66-1.25,11.5-.05.46-.32,1.1.13,1.39.44.28.96-.13,1.38-.37,1.09-.61,1.92-1.52,2.62-2.54.51-.74,1.15-1.32,2.03-.74.97.64.57,1.47.06,2.25-2.2,3.35-5.54,4.97-8.75,4.15-3.11-.79-4.84-3.05-5.93-5.89-.26-.68-.15-1.41.63-1.73.8-.32,1.42.02,1.77.79.67,1.51,1.47,2.91,3.24,3.88ZM75.28,129.91c-.02-1.25-1-2.16-2.31-2.16-1.33,0-2.24.88-2.25,2.18,0,1.31,1.03,2.32,2.34,2.27,1.24-.04,2.25-1.08,2.22-2.29Z"/>
      </g>
      <g id="Freckles">
        <path class="cls-11" d="M211.8,108.11c-.09.64-.52,1.02-1.18,1.01-.66,0-1.14-.35-1.14-1.07,0-.8.5-1.13,1.23-1.12.69.02,1.06.43,1.1,1.17Z"/>
        <path class="cls-8" d="M209.87,97.97c-.07.72-.39,1.16-1.1,1.14-.71-.01-1.08-.45-1.06-1.12.01-.6.39-1,1.02-1.03.72-.03,1.04.4,1.14,1Z"/>
        <path class="cls-8" d="M204.82,104.86c-.04.67-.35,1.06-1,1.1-.7.04-1.14-.29-1.15-1.03-.01-.65.37-1.04.98-1.09.71-.06,1.07.38,1.17,1.03Z"/>
      </g>
      <g id="L_Eye" data-name="L Eye">
        <path class="cls-11" d="M114.42,88.93c-.21,5.62-.4,11.25-.66,16.87-.05,1.14.19,1.52,1.33,1.02.49-.22,1.05-.28,1.58-.38.86-.16,1.74-.14,1.97.9.22,1.03-.52,1.41-1.39,1.65-1.22.34-2.44.7-3.64,1.11-6.38,2.17-11.85,5.88-16.88,10.25-1.03.9-1.8.93-2.84.12-4.96-3.83-9.93-7.64-15.06-11.24-3.73-2.62-6.49-5.98-6.99-10.72-.39-3.74.33-7.34,1.82-10.76,3.97-9.11,9.91-16.55,18.64-21.55,2.38-1.36,4.92-2.32,7.68-2.58,4.86-.47,8.77,1.66,11.06,6.04,1.53,2.94,2.29,6.11,2.74,9.36.46,3.29.69,6.59.64,9.91ZM111.73,92.04c.35-2.96.08-7.35-.43-11.73-.4-3.44-1.11-6.81-2.85-9.86-1.97-3.45-5.2-4.87-9.1-4.1-2.07.41-4.02,1.14-5.82,2.2-8.94,5.26-14.91,12.95-18.28,22.69-.7,2.02-.98,4.14-.85,6.3.26,4.4,2.82,7.36,6.19,9.75,4.75,3.35,9.28,6.98,13.85,10.57.6.47.9.39,1.46-.06,4.45-3.6,9.05-6.98,14.38-9.21.6-.25.76-.57.79-1.2.17-4.63.39-9.25.66-15.32Z"/>
        <path class="cls-5" d="M111.73,92.04c-.27,6.07-.49,10.7-.66,15.32-.02.63-.19.95-.79,1.2-5.33,2.23-9.93,5.61-14.38,9.21-.56.46-.86.53-1.46.06-4.57-3.58-9.1-7.21-13.85-10.57-3.37-2.38-5.94-5.34-6.19-9.75-.13-2.16.15-4.28.85-6.3,3.38-9.74,9.34-17.43,18.28-22.69,1.8-1.06,3.76-1.79,5.82-2.2,3.89-.77,7.13.66,9.1,4.1,1.74,3.05,2.44,6.43,2.85,9.86.52,4.38.78,8.77.43,11.73Z"/>
        <path id="l_eye" data-name="l eye" class="cls-8" d="M93.96,90.49c1.84-5.46,3.59-10.61,5.33-15.76.13-.38.26-.78.48-1.12.33-.5.84-.69,1.43-.49.59.2.9.64.84,1.25-.05.49-.19.98-.35,1.44-1.86,5.54-3.72,11.09-5.62,16.62-.29.84-.23,1.51.23,2.29,2.13,3.64,4.2,7.32,6.29,10.98.18.32.36.63.53.95.4.76.52,1.53-.33,2.03-.84.49-1.48.07-1.92-.69-.62-1.06-1.23-2.12-1.84-3.18-1.44-2.51-2.88-5.02-4.47-7.8-.93,2.75-1.78,5.24-2.62,7.73-.48,1.42-.94,2.84-1.43,4.26-.29.83-.79,1.55-1.8,1.19-.98-.35-.98-1.18-.69-2.05,1.45-4.3,2.86-8.61,4.36-12.89.33-.94.3-1.67-.22-2.53-1.99-3.36-3.9-6.76-5.84-10.15-.14-.24-.25-.48-.39-.72-.5-.85-1.08-1.83.05-2.49,1.21-.7,1.77.35,2.28,1.24,1.5,2.64,3.01,5.28,4.52,7.92.33.58.68,1.14,1.17,1.95Z"/>
        <path class="cls-7" d="M99.72,56.88c-5.62.14-10.62,2.33-14.93,6.19-2.8,2.51-5.15,5.36-6.82,8.75-.14.28-.31.56-.5.8-.33.42-.77.67-1.31.49-.53-.18-.77-.59-.81-1.14-.1-1.63.43-3.14.95-4.63,2.66-7.59,8.37-12.09,15.49-15.08,2.76-1.16,5.63-2.04,8.64-2.3,2.41-.2,3.16.54,3.05,2.91-.01.27-.01.55-.04.82-.37,3.22-.92,3.37-3.71,3.2Z"/>
      </g>
      <g id="R_eye" data-name="R eye">
        <path class="cls-11" d="M199.73,87.56c0,3.66-1.23,6.6-3.12,9.29-3.24,4.63-7.43,8.31-11.95,11.63-2.05,1.5-4.12,2.98-6.34,4.23-1.29.73-2.32.68-3.59-.26-4.62-3.41-9.59-6.22-15.02-8.15-.84-.3-1.73-.6-1.52-1.74.2-1.09,1.06-1.08,1.93-.92.96.18.74-.56.78-1.04.5-6.07,1.45-12.06,3.33-17.87,1.16-3.58,2.71-6.92,5.67-9.43,3.34-2.82,7.13-3.83,11.3-2.53,6.06,1.89,11.55,4.83,15.76,9.75,1.79,2.09,2.83,4.53,2.75,7.05ZM177.79,72.94c-1.9-.11-3.57.54-5.11,1.57-2.52,1.68-4.06,4.11-5.14,6.86-2.57,6.56-3.65,13.45-4.38,20.41-.09.85.25,1.15.95,1.47,3.91,1.83,7.66,3.96,11.12,6.54,1.06.79,1.77.71,2.74.08,5.22-3.34,10.13-7.06,14.27-11.71,1.24-1.39,2.36-2.88,3.26-4.52,2.72-4.93,2.18-9.05-1.89-12.93-3.74-3.57-8.25-5.87-13.14-7.46-.87-.28-1.78-.37-2.68-.33Z"/>
        <path id="Eye_BG" data-name="Eye BG" class="cls-5" d="M177.79,72.94c.91-.04,1.82.04,2.68.33,4.88,1.59,9.4,3.89,13.14,7.46,4.07,3.89,4.61,8,1.89,12.93-.9,1.64-2.02,3.13-3.26,4.52-4.14,4.65-9.05,8.37-14.27,11.71-.97.62-1.68.7-2.74-.08-3.46-2.58-7.21-4.71-11.12-6.54-.7-.33-1.04-.62-.95-1.47.74-6.96,1.82-13.85,4.38-20.41,1.08-2.75,2.62-5.18,5.14-6.86,1.54-1.03,3.21-1.69,5.11-1.57Z"/>
        <path id="r_eye" data-name="r eye" class="cls-8" d="M175.08,94.91c-2.43,1.78-4.69,3.43-6.95,5.08-.33.24-.66.49-.99.72-.8.57-1.73,1.22-2.49.17-.75-1.04.13-1.73.93-2.31,2.79-2.03,5.56-4.08,8.36-6.09.61-.44.84-.87.75-1.69-.49-4.37-.88-8.75-1.3-13.13-.09-.91-.07-1.88,1.09-1.97,1.21-.1,1.41.84,1.5,1.83.35,3.79.74,7.58,1.12,11.37.03.31.13.61.22,1.07,2.32-1.69,4.54-3.32,6.77-4.95,1.46-1.07,2.92-2.15,4.39-3.22.79-.58,1.69-1.22,2.47-.12.72,1.02-.1,1.65-.87,2.21-3.81,2.79-7.59,5.61-11.43,8.35-.86.61-1.13,1.24-1.02,2.26.42,3.69.76,7.4,1.13,11.1.09.95.14,1.96-1.14,2.03-1.24.07-1.36-.9-1.46-1.87-.34-3.54-.72-7.09-1.11-10.85Z"/>
        <path id="Brow_2" data-name="Brow 2" class="cls-7" d="M190.98,68.76c0,.56,0,.88,0,1.2.02.61-.21,1.09-.81,1.27-.68.22-1.12-.18-1.46-.72-.14-.23-.26-.48-.35-.73-1.44-3.72-4-6.56-7.15-8.88-.77-.56-1.17-1.11-1.17-2.09,0-1.63-.12-3.26-.23-4.89-.05-.79.12-1.07.98-.79,5.63,1.87,9.41,6.68,9.9,12.62.09,1.08.2,2.17.28,3.01Z"/>
        <path id="Brow" class="cls-7" d="M175.11,56.6c.07,1.78.07,1.76-1.63,1.6-1.13-.11-2.26-.17-3.39-.25-1.94-.13-2.86-.93-3.26-2.84-.82-3.89.35-5.13,4.23-4.46.76.13,1.51.34,2.28.37,1.21.04,1.64.56,1.59,1.78-.05,1.26.11,2.53.18,3.8Z"/>
      </g>
      <g id="Mouth">
        <path id="Mouth_BG" data-name="Mouth BG" class="cls-6" d="M207.76,161.92c1.24-5.37.45-11.77,2.03-12.08s7.57.62,8.71,1.96,4.85,16.73,4.85,16.73l2.48,27.78s.21,44.3-6.51,59.48-25.82,32.84-50.81,39.55-59.79,8.88-71.46,6.82-34.39-10.84-42.75-31.81-5.47-48.24-3.3-55.82,13.53-39.6,13.53-39.6c0,0,21.38,26.75,26.75,28.91s25.09,13.42,35.11,14.35,31.91,1.14,48.64-9.29,29.53-29.9,32.74-46.99Z"/>
        <path id="Gold_Tooth" data-name="Gold Tooth" class="cls-3" d="M147.33,240.33c.02-6.3-.39-11.16.3-16,.21-1.48.14-3.18.87-4.36.79-1.26,2.69-.83,4.09-1.14,7.23-1.59,14.12-4.05,20.53-7.76.96-.55,1.41-.43,2.07.43,2.82,3.63,5.51,7.33,7.12,11.69,2,5.4.96,10.18-3.03,14.28-4.36,4.48-9.65,7.67-15.15,10.5-4.28,2.2-8.64,4.23-13.27,5.58-2.84.83-3.11.63-3.22-2.29-.15-4.13-.4-8.26-.32-10.95Z"/>
        <path id="Bottom_Teeth" data-name="Bottom Teeth" class="cls-10" d="M225.5,196.12c-3.37,3.34-7.81,8.85-5.49,13.16-3.41.99-9.79,5.32-13.94,9.2,0,0-17.85,11-14.06,22,.9,2.98-.9,3.79-3.25,3.52s-9.47,1.98-9.47,1.98l-18.21,9.83s-3.16,3.43-2.79,11.54c-1.03,8.65-2.07,17.67-2.07,17.67l-3.88-21.37s-.63-9.92-12.26-4.06-16.59,5.23-21.46,2.88-12.71-4.69-15.96,5.14c-2.43,5.41-2.37-2.16-2.81-4.51s-.1-7.02-5.62-7.03-22.85-11.28-23.57-11.99-4.96-3.24-7.84-.45c0-4.15,1.8-19.02-9.65-23.26-2.98-1.35-4.09,3.16-4.48,9.11s.06,44.53,17.82,59.23,43.27,14.2,43.27,14.2c0,0,50.8-2.39,69.6-10.18,28.27-15.44,45.39-28.73,47.22-69.53,0-9.02-1.12-27.07-1.12-27.07Z"/>
        <path id="Top_Teeth" data-name="Top Teeth" class="cls-10" d="M65.29,174.63s-12.7,28.12-12.63,34.01,10.9,15.29,12.97,16.34,6.49,2.22,6.49,2.22c0,0-.34,10.83,7.11,14.97s14.07,10.83,21.18,3.24,9.87-11.88,9.52-7.77-2.07,14.53,7.24,18.6,23.8,4.07,26.01-5.52,4.05-31.87,4.05-31.87c0,0-25.3-.53-36.71-4.76-23.08-8.55-37.78-28.77-45.23-39.46Z"/>
        <path id="Top_Tooth" data-name="Top Tooth" class="cls-10" d="M207.75,163.43c.17-1.49,2.2-7.25,3.02-6.34s8.25,10.65,9.57,12.02,4.33,6.84,4.33,6.84c0,0,1.18,9.45-.98,15.7s-8.49,4.97-11.29,3.98l-12.62-10.42.94-4.26s5.28-9.38,5.45-10.66,1.56-6.85,1.56-6.85Z"/>
        <path id="Teeth_Outline" data-name="Teeth Outline" class="cls-8" d="M221.15,155.52c.59,1.87,1.2,3.66,1.73,5.47,1.8,6.17,2.77,12.5,3.2,18.9.78,11.73,1.59,23.47,1.41,35.25-.2,12.84-1.92,25.44-6,37.65-4,11.94-11.34,21.36-21.48,28.79-10.05,7.36-21,12.53-33.17,15.25-10.28,2.3-20.56,4.6-31.02,5.96-9.21,1.2-18.45,1.62-27.73,1.16-6.91-.34-13.73-1.15-20.44-2.93-11.25-2.98-20.13-9.33-27.07-18.56-8.07-10.73-12.24-22.84-13.13-36.22-.96-14.39,1.26-28.34,5.29-42.07,2.91-9.9,6.2-19.66,10.74-28.95.1-.2.15-.42.21-.58-.17-.33-.42-.27-.62-.22-4.11,1.07-7.7,2.96-10.21,6.55-.16.22-.28.47-.44.68-.46.61-1.07.91-1.78.5-.77-.45-.8-1.18-.41-1.9.93-1.7,2.19-3.13,3.7-4.32,4.66-3.66,9.99-5.04,15.85-4.49,3.71.35,7.37,1.01,10.96,2.05.26.08.53.11.79.2.7.23,1.3.61,1.11,1.45-.21.92-.97.99-1.74.85-.58-.1-1.15-.27-1.72-.42-3.48-.91-7.03-1.41-10.61-1.68-.34-.03-.8-.18-1.02.13-.25.35.14.67.31.97,13.27,22.06,31.96,36.88,57.6,41.48,22.42,4.02,42.45-1.81,59.37-17.23,12.42-11.32,19.56-25.65,22.73-42.04.36-1.87.55-3.77.86-5.65.13-.79-.21-1.05-.94-1.12-2.94-.27-5.87-.56-8.81-.84-.27-.03-.55-.03-.81-.07-.81-.12-1.6-.34-1.48-1.39.11-.95.87-1.09,1.64-1.02,6.28.53,12.61.8,18.76,2.29,2.88.7,5.21,2.53,7.16,4.76,1.77,2.03,3.26,4.25,4.56,6.6.43.78.83,1.71-.11,2.3-1.02.64-1.67-.13-2.17-.98-1.12-1.93-2.3-3.81-3.73-5.53-.33-.4-.57-.95-1.35-1.03ZM141.44,257.37c1.63-.42,3.17-1.13,5.08-1.28-1.82-1.77-1.18-4.03-1.71-6.01-.79,2.63-1.88,5.04-3.48,7.21-.1.03-.24.03-.15.19,0,.01.17-.07.26-.1ZM113.18,301.46c7.1.18,14.16-.26,21.2-1.15,6.48-.81,12.92-1.93,19.33-3.23.78-.16,1.07-.46.96-1.26-.17-1.17-.25-2.35-.37-3.52-.7-6.86-1.38-13.72-2.11-20.58-.36-3.38-.72-6.77-1.67-10.05-.74-2.54-2.13-3.27-4.75-2.79-2.51.46-4.66,1.71-6.83,2.94-2.28,1.3-4.55,2.65-7.06,3.48-4.5,1.49-8.68.46-12.73-1.61-1.9-.97-3.79-1.95-5.88-2.45-3.66-.87-5.79-.11-7.54,2.69-.78,1.24-1.32,2.58-1.77,3.96-1.24,3.86-1.78,7.87-2.28,11.87-.82,6.48-1.6,12.97-1.81,19.51-.04,1.24.4,1.53,1.48,1.61,3.94.31,7.88.56,11.83.57ZM99.28,273c0-.75.04-1.71,0-2.66-.16-3.44-.29-6.9-1.08-10.27-.45-1.89-.91-2.26-2.85-2.52-2.25-.3-4.47-.73-6.62-1.49-5.46-1.93-10.22-5.03-14.69-8.66-1.76-1.43-3.52-2.87-5.61-3.82-1.97-.9-3.32-.58-4.69,1.1-1.11,1.36-1.76,2.96-2.25,4.61-1.74,5.83-2.77,11.83-4.18,17.73-.75,3.15-.08,5.62,1.55,8.28,5.41,8.77,12.17,16.04,21.68,20.42,4.94,2.28,10.16,3.6,15.51,4.5,1.09.18,1.4,0,1.44-1.11.14-3.54.31-7.07.6-10.6.42-5.1,1.5-10.16,1.2-15.51ZM157.45,292.78c-.05.82-.04,1.64-.16,2.45-.14.95.2,1.06,1.04.86,3.18-.78,6.35-1.55,9.55-2.23,13.73-2.94,25.4-9.8,35.98-18.79.92-.78,1.06-1.39.56-2.52-2.08-4.68-4.05-9.41-6.03-14.14-1.3-3.09-2.44-6.26-3.98-9.24-1.88-3.62-4.94-5.04-8.95-4.29-2.39.45-4.65,1.33-6.68,2.63-5.17,3.31-10.53,6.25-16.19,8.62-2.09.88-3.01,2.46-2.97,4.72.06,3.87-.31,7.72-.64,11.56-.58,6.79-1.2,13.57-1.52,20.37ZM73.63,230.04c-.14,3.3,1.32,6.37,3.87,8.79,4.43,4.2,9.5,7.41,15.56,8.8,1.38.32,2.69.14,3.92-.64,1.05-.66,2-1.42,2.82-2.33,3.54-3.91,6.63-8.18,9.64-12.5.48-.69,1.08-1.31,1.31-2.19,1.09-4.08,2.46-8.06,3.89-12.03.35-.98.18-1.27-.78-1.58-9.31-3.07-17.79-7.68-25.48-13.76-.59-.47-.91-.62-1.45.16-3.48,5.04-6.84,10.16-9.89,15.47-2.04,3.55-3.36,7.33-3.41,11.83ZM224.72,222.33c0-.78.16-1.39-.03-1.86-1.06-2.76-2.23-5.48-4.22-7.71-1.63-1.83-2.82-1.95-4.87-.5-2.26,1.6-4.47,3.27-6.63,5-4.4,3.51-8.69,7.16-12.57,11.26-2.53,2.68-4.25,5.63-3.52,9.54.45,2.41.64,4.99,2,7,1.57,2.32,2.8,4.75,3.87,7.3,2.59,6.14,5.19,12.27,7.72,18.43.48,1.16.78.98,1.47.21,4.46-5,8-10.58,10.35-16.85,3.87-10.33,5.67-21.09,6.42-31.81ZM224.39,192.43c-.51.85-.92,1.6-1.39,2.3-1.64,2.46-3.85,3.8-6.91,3.41-1.47-.19-2.79-.77-4.04-1.53-4.37-2.66-8.3-5.87-11.81-9.59-.74-.79-1.06-1.02-1.78.09-5.48,8.51-12.41,15.62-20.86,21.22-.91.6-.88.95-.24,1.73,3.07,3.73,5.82,7.68,7.46,12.27,2.26,6.32,1.12,11.97-3.49,16.87-1.81,1.92-3.84,3.61-6.01,5.12-7.78,5.43-16.21,9.55-25.39,12.33,1.94,1.17,2.87,3.01,3.36,5.09.68,2.92,1.1,5.88,1.42,8.86.27,2.51.52,5.02.77,7.53.31-.94.45-1.86.56-2.78.59-5.19.83-10.41,1.04-15.63.09-2.2,1.04-3.94,2.88-5.13.99-.63,2.05-1.16,3.13-1.62,4.27-1.82,8.35-3.98,12.25-6.49,4.81-3.1,9.84-5.51,15.81-3.87.18-.53-.05-.9-.15-1.28-1.51-5.43-.75-10.28,3.33-14.48,6.23-6.41,13.08-12.06,20.39-17.18.74-.52,1.6-.92,2.52-.94.87-.02.8-.39.6-1.02-.66-2.08-.27-4.02.85-5.86,1.22-2,2.75-3.75,4.49-5.27,1.3-1.15,1.91-2.34,1.21-4.16ZM110.52,243.19c-.09,6.16,2.61,9.71,7.36,11.8,4.73,2.07,9.79,2.74,14.89,2.71,5.08-.03,7.11-1.75,8.8-6.55,1.4-3.98,1.79-8.13,2.18-12.28.55-5.82.58-11.7,1.7-17.46.27-1.41-.1-1.56-1.32-1.44-8.72.82-17.31-.05-25.76-2.28-.93-.25-1.14.02-1.4.8-1.55,4.6-3.05,9.21-4.25,13.91-.97,3.82-2.11,7.61-2.21,10.8ZM147.33,240.33c-.08,2.69.16,6.82.32,10.95.11,2.92.38,3.12,3.22,2.29,4.64-1.36,9-3.39,13.27-5.58,5.51-2.83,10.79-6.02,15.15-10.5,4-4.1,5.03-8.88,3.03-14.28-1.61-4.36-4.31-8.06-7.12-11.69-.67-.86-1.11-.99-2.07-.43-6.42,3.71-13.31,6.17-20.53,7.76-1.41.31-3.31-.12-4.09,1.14-.74,1.18-.66,2.88-.87,4.36-.69,4.84-.28,9.7-.3,16ZM65.64,176.44c-.23.42-.41.69-.53.98-4.75,10.58-8.25,21.59-11.3,32.75-.21.76.04,1.3.47,1.87,1.9,2.56,3.94,4.99,6.27,7.16,2.88,2.69,6.07,4.88,9.81,6.23.78.28,1.07.21,1.25-.68.58-2.82,1.72-5.44,3.18-7.91,3.12-5.27,6.51-10.37,10.1-15.34.57-.78.73-1.21-.14-1.92-2.22-1.81-4.24-3.84-6.21-5.92-4.92-5.2-9.17-10.9-12.9-17.22ZM210.13,158.47c-.13.23-.23.34-.25.46-1.68,8.52-4.66,16.55-8.92,24.11-.37.66-.25,1,.22,1.5,3.42,3.6,7.23,6.74,11.43,9.39,1.04.65,2.13,1.19,3.33,1.52,1.45.4,2.79.14,3.76-.94,2.67-2.96,4.02-6.57,4.35-10.47.17-2.05-.3-4.15-.44-6.23-.1-1.54-.64-2.83-1.65-4.05-2.37-2.86-4.65-5.81-6.92-8.75-1.65-2.14-3.25-4.32-4.9-6.54ZM108.58,238.27c-.57.23-.71.64-.96.95-2.31,2.92-4.42,6-7.21,8.51-2.57,2.31-5.41,3.21-8.9,2.26-5.2-1.42-9.65-4.16-13.81-7.42-4.38-3.44-6.95-7.85-6.7-13.6.03-.58-.09-.89-.71-1.08-5.67-1.67-10.13-5.19-14.09-9.42-1.15-1.23-2.22-2.53-3.45-3.94-.27,1.23-.47,2.26-.73,3.26-.15.59.07.8.6.97,6.27,2.04,9.91,6.4,11.33,12.77.61,2.74.63,5.49.54,8.27-.01.38-.25,1.04.59.82,2.43-.63,4.44.41,6.4,1.62,2.24,1.39,4.22,3.15,6.32,4.73,5.44,4.09,11.28,7.31,18.21,8,2.77.27,4.16,1.88,4.76,4.46.48,2.05.67,4.15.96,6.57.78-1.55,1.32-2.83,2.11-3.98,1.66-2.43,3.9-3.69,6.88-3.68,2.37,0,4.58.62,6.7,1.59,1.69.77,3.34,1.65,5.04,2.38,5.08,2.18,9.6.76,14.08-2.26-.4,0-.58-.02-.75,0-5.98.77-11.78-.13-17.43-2.03-4.79-1.62-8.47-4.58-9.94-9.65-.96-3.31-.51-6.66.16-10.09ZM54.77,267.11c.8-3.91,1.49-7.52,2.28-11.1.87-3.94,1.62-7.93,3.63-11.5.45-.81.78-1.63.92-2.53.53-3.4.47-6.78-.26-10.15-1.1-5.08-4-8.64-8.84-10.6-.75-.3-1.07-.25-1.23.7-1.72,10.33-2.12,20.68-.48,31.06.75,4.77,2.02,9.39,3.98,14.14ZM222.09,169.74l.35-.18c-1.01-5.02-2.19-9.97-4.52-14.61-1.2-2.39-2.92-3.85-5.68-3.86-.04,0-.09-.02-.13-.03-.66-.21-.96-.01-1.1.71-.38,1.93-.44,3.69,1.12,5.26,1.07,1.09,1.85,2.47,2.8,3.68,2.38,3.02,4.78,6.02,7.17,9.02ZM224.87,214.31c.21-5.19.29-10.31-.12-15.63-1.56,1.37-2.76,2.75-3.8,4.29-1.07,1.58-1.2,3.16-.48,5,.97,2.48,3.35,3.92,4.41,6.34ZM221.09,155.11s-.06.05-.06.07c0,.03.04.05.06.08.02-.02.06-.05.06-.08,0-.03-.04-.05-.06-.08Z"/>
      </g>
      <g id="Nose">
        <path id="Nose_Stroke" data-name="Nose Stroke" class="cls-11" d="M181.16,144.15c.32,5.9.71,11.8.29,17.71-.37,5.19-1.06,10.31-3.25,15.09-3.52,7.68-10.45,11.17-18.76,9.59-3.55-.67-6.93-1.85-10.25-3.19-12.31-4.96-24.81-5.76-37.6-2.04-3.7,1.08-7.47,1.89-11.41,1.32-5.01-.74-8.91-3.18-11.82-7.29-3.04-4.28-4.41-9.15-4.82-14.28-.78-9.74,1.03-18.99,5.71-27.62,1.79-3.3,3.92-6.34,6.87-8.72,3.68-2.98,7.93-3.83,12.54-3.41,3.61.32,7.15,1.36,10.81,1.26,9.24-.26,17.99-2.45,25.91-7.29,3.38-2.07,6.6-4.35,10.58-5.12,4.32-.84,8.68-1.25,12.92.24,6.24,2.19,9.67,6.95,11.39,13.12.6,2.15.88,4.36.89,6.6.01,4.68,0,9.36,0,14.04ZM178.64,145.96c0-4.59.02-9.18,0-13.77-.02-2.55-.22-5.08-.8-7.57-1.54-6.69-6.24-11.54-12.3-12.3-5.84-.73-11.34.32-16.4,3.62-4.53,2.95-9.35,5.36-14.61,6.86-7.25,2.05-14.51,3.3-22.03,1.72-2.85-.6-5.76-.89-8.67-.44-4.4.68-7.47,3.38-9.89,6.88-6.05,8.73-8.44,18.5-7.86,29.02.23,4.15,1.16,8.18,3.2,11.87,3.18,5.75,7.96,8.66,14.61,8.27,2.37-.14,4.67-.66,6.94-1.31,13.26-3.85,26.27-3.11,39.08,2.01,3.45,1.38,6.94,2.65,10.65,3.26,6.15,1.01,11.57-1.48,14.53-6.8,1.18-2.12,1.94-4.39,2.5-6.74,1.94-8.11,1.27-16.35,1.05-24.56Z"/>
        <path id="nose" class="cls-4" d="M178.64,145.96c.22,8.21.89,16.45-1.05,24.56-.56,2.35-1.32,4.62-2.5,6.74-2.96,5.32-8.38,7.82-14.53,6.8-3.71-.61-7.2-1.88-10.65-3.26-12.8-5.11-25.82-5.86-39.08-2.01-2.26.66-4.57,1.18-6.94,1.31-6.66.39-11.43-2.53-14.61-8.27-2.04-3.69-2.98-7.72-3.2-11.87-.57-10.52,1.81-20.29,7.86-29.02,2.43-3.5,5.5-6.2,9.89-6.88,2.91-.45,5.81-.16,8.67.44,7.52,1.58,14.79.33,22.03-1.72,5.26-1.49,10.08-3.9,14.61-6.86,5.06-3.3,10.55-4.35,16.4-3.62,6.06.76,10.75,5.61,12.3,12.3.58,2.49.78,5.03.8,7.57.03,4.59,0,9.18,0,13.77Z"/>
        <path id="L_Stroke" data-name="L Stroke" class="cls-11" d="M117.05,136.69c-.54,7.81-3.26,14.61-9.29,19.86-1.14.99-2.46,1.72-3.96,2.02-3.68.72-6.54-1.69-6.94-5.97-.7-7.58,2.07-14.03,6.7-19.82.8-1,1.74-1.85,2.76-2.62,2.12-1.6,4.45-2.66,7.08-1.51,2.64,1.16,3.31,3.67,3.63,6.27.07.58.01,1.18.01,1.77ZM99.29,150.21c-.02,1.17.08,2.29.44,3.38.79,2.41,2.35,3.09,4.65,2.02,1.68-.78,2.99-2.05,4.15-3.46,2.97-3.62,4.79-7.79,5.7-12.35.43-2.15.56-4.32-.15-6.46-.81-2.41-2.32-3.08-4.64-2.04-1.01.45-1.89,1.09-2.66,1.87-4.67,4.73-6.97,10.49-7.49,17.03Z"/>
        <path id="r_nostril_stroke" data-name="r nostril stroke" class="cls-11" d="M153.03,135.29c.07-3.44.56-6.79,2.26-9.83,1.46-2.61,3.41-4.61,6.71-4.54,2.08.04,3.58,1.19,4.87,2.65,2.2,2.5,3.23,5.53,3.77,8.75.73,4.29.46,8.49-1.18,12.56-.49,1.23-1.16,2.36-2.01,3.37-2.69,3.21-6.63,3.45-9.66.56-2.32-2.21-3.46-5.07-4.15-8.11-.4-1.77-.63-3.57-.61-5.4ZM155.7,135.19c0,3.46.6,6.78,2.4,9.79,1.02,1.7,2.27,3.35,4.53,3.18,2.17-.16,3.21-1.86,4.08-3.6,1.72-3.46,1.9-7.17,1.5-10.9-.3-2.77-1.09-5.43-2.78-7.72-2.39-3.23-5.41-3.13-7.53.26-1.72,2.74-2.19,5.82-2.2,8.99Z"/>
        <g id="L_nostril" data-name="L nostril">
          <path class="cls-1" d="M99.29,150.21c.51-6.54,2.82-12.31,7.49-17.03.77-.78,1.65-1.42,2.66-1.87,2.32-1.04,3.84-.37,4.64,2.04.72,2.14.58,4.31.15,6.46-.91,4.57-2.74,8.73-5.7,12.35-1.16,1.41-2.46,2.68-4.15,3.46-2.3,1.07-3.86.39-4.65-2.02-.36-1.09-.46-2.22-.44-3.38Z"/>
        </g>
        <g id="R_nostril" data-name="R nostril">
          <path class="cls-1" d="M155.7,135.19c0-3.18.48-6.25,2.2-8.99,2.13-3.39,5.15-3.49,7.53-.26,1.69,2.29,2.49,4.95,2.78,7.72.4,3.74.22,7.44-1.5,10.9-.87,1.74-1.91,3.44-4.08,3.6-2.27.17-3.51-1.48-4.53-3.18-1.8-3-2.41-6.32-2.4-9.79Z"/>
        </g>
      </g>
    </g>
  </g>
</svg>